<mxfile host="app.diagrams.net" modified="2024-06-07T01:04:46.694Z" agent="Mozilla/5.0 (Macintosh; Intel Mac OS X 10_15_7) AppleWebKit/537.36 (KHTML, like Gecko) Chrome/125.0.0.0 Safari/537.36" version="22.1.16" etag="24i9dvfNRqmXZMLlPrgv" type="github">
  <diagram name="第 1 页" id="dM3sZF_DKVQYT3NNuljV">
    <mxGraphModel>
      <root>
        <mxCell id="0" />
        <mxCell id="1" parent="0" />
      </root>
    </mxGraphModel>
  </diagram>
</mxfile>
